IKResults
version=1
nRows=16
nColumns=40
inDegrees=yes

Units are S.I. units (second, meters, Newtons, ...)
Angles are in degrees.

endheader
time	pelvis_tilt	pelvis_list	pelvis_rotation	pelvis_tx	pelvis_ty	pelvis_tz	hip_flexion_r	hip_adduction_r	hip_rotation_r	knee_angle_r	knee_angle_r_beta	ankle_angle_r	subtalar_angle_r	mtp_angle_r	hip_flexion_l	hip_adduction_l	hip_rotation_l	knee_angle_l	knee_angle_l_beta	ankle_angle_l	subtalar_angle_l	mtp_angle_l	lumbar_extension	lumbar_bending	lumbar_rotation	arm_flex_r	arm_add_r	arm_rot_r	elbow_flex_r	pro_sup_r	wrist_flex_r	wrist_dev_r	arm_flex_l	arm_add_l	arm_rot_l	elbow_flex_l	pro_sup_l	wrist_flex_l	wrist_dev_l
      0.78000000	     14.63131076	      2.70404011	     -3.14201076	     -0.18225509	      0.91478174	      1.02731591	    -29.24899034	     -3.95203032	     -9.58920601	    -22.18595930	     -0.38721804	     13.21418515	      0.05947244	     -4.47318654	      8.48609300	     -0.69452217	     24.95891272	    -17.04106704	     -0.29742273	      3.91488843	     -4.93375820	     -7.11686913	    -19.92312408	     -5.98383939	      9.07176074	      0.28758577	    -15.40106973	     -4.53977044	     60.05215768	     89.95437384	      0.00000000	      0.00000000	    -12.58979889	      7.20933337	     24.59737139	     12.27198543	     89.95437384	      0.00000000	      0.00000000
      0.79000000	     14.52355998	      2.63502984	     -3.52542361	     -0.16988947	      0.91434317	      1.02678867	    -29.28827089	     -4.01361749	     -7.91346265	    -23.18543962	     -0.40466226	     11.94650793	     -2.07813817	     -4.28927988	      8.67131157	     -0.49853765	     24.75646384	    -18.57595005	     -0.32421149	      1.66933959	     -2.65742970	     -6.95689883	    -19.64482221	     -6.01678372	      9.43223020	     -0.18838252	    -15.20219734	     -4.90859904	     60.16781671	     89.95437384	      0.00000000	      0.00000000	    -12.50024500	      7.23382231	     24.71256748	     11.49760290	     89.95437384	      0.00000000	      0.00000000
      0.80000000	     14.51489137	      2.85011826	     -3.56106310	     -0.15750047	      0.91439926	      1.02563423	    -29.28702834	     -4.37301434	     -7.43840723	    -24.51347979	     -0.42784093	     10.52957205	     -2.50522347	     -4.04149123	      8.76492109	     -0.67322303	     23.91614375	    -20.01348056	     -0.34930113	      0.83451240	     -1.84748900	     -6.74840083	    -19.51319291	     -6.26387763	      9.17990296	     -0.47619565	    -14.99101608	     -4.87842935	     59.99908365	     89.95437384	      0.00000000	      0.00000000	    -12.69704312	      7.28462615	     24.41545226	     11.26727711	     89.95437384	      0.00000000	      0.00000000
      0.81000000	     14.62890269	      3.12117841	     -3.59673534	     -0.14505090	      0.91521189	      1.02461653	    -29.26516701	     -4.75110307	     -6.96861822	    -26.04976640	     -0.45465419	      8.75323768	     -3.19814409	     -3.69235171	      8.67852289	     -0.92121098	     23.06180804	    -21.36407610	     -0.37287347	      0.61162685	     -0.90421144	     -6.53829004	    -19.51318211	     -6.59413558	      8.96646799	     -0.83801794	    -14.69904210	     -4.95850827	     59.72092341	     89.95437384	      0.00000000	      0.00000000	    -12.70488070	      7.37175014	     24.02363394	     10.95524791	     89.95437384	      0.00000000	      0.00000000
      0.82000000	     14.76497463	      3.37970769	     -3.63560337	     -0.13231872	      0.91640512	      1.02352404	    -29.20518786	     -5.05770939	     -6.28852571	    -27.66505786	     -0.48284635	      7.13555763	     -3.38065271	     -3.42519432	      8.45217420	     -1.23284223	     22.00090973	    -22.59492520	     -0.39435584	      0.40779722	     -0.44956533	     -6.33581513	    -19.54077666	     -6.91646994	      8.69655894	     -1.27121806	    -14.38920117	     -4.96984717	     59.40323586	     89.95437384	      0.00000000	      0.00000000	    -12.86798632	      7.41757544	     23.69552743	     11.02704134	     89.95437384	      0.00000000	      0.00000000
      0.83000000	     15.08684702	      3.63851504	     -3.60517155	     -0.11972236	      0.91864841	      1.02203565	    -29.16024516	     -5.24296052	     -5.72014386	    -29.35004534	     -0.51225493	      3.21681606	     -7.03432472	     -2.04867587	      7.48529404	     -2.19845956	     19.38386457	    -22.69121503	     -0.39603641	      1.25638631	      3.63428282	     -5.91005951	    -19.76386051	     -7.15926963	      8.58054227	     -1.82685025	    -14.14762471	     -5.17802798	     58.93599203	     89.95437384	      0.00000000	      0.00000000	    -12.50372078	      7.58017919	     22.24853153	     10.40412665	     89.95437384	      0.00000000	      0.00000000
      0.84000000	     15.50982327	      3.82447477	     -3.62880635	     -0.10670033	      0.92101499	      1.02049680	    -28.96631557	     -5.73757546	     -6.05144773	    -31.48704617	     -0.54955263	     -0.04745096	     -7.17957686	     -1.44372082	      6.41466209	     -2.69169047	     18.55978374	    -23.13120513	     -0.40371569	      1.88868356	      3.73452877	     -5.81848691	    -20.03622860	     -7.32822991	      8.31824220	     -2.29564169	    -13.96462660	     -5.03833448	     58.32181419	     89.95437384	      0.00000000	      0.00000000	    -12.35027331	      7.59595891	     21.71603060	     10.18566795	     89.95437384	      0.00000000	      0.00000000
      0.85000000	     15.96902368	      3.99280574	     -3.61534771	     -0.09381609	      0.92368409	      1.01890552	    -28.65349307	     -6.21411801	     -6.39147082	    -33.70100537	     -0.58819350	     -3.53337650	     -7.60270429	     -0.75967911	      5.12455482	     -3.22867880	     17.82408823	    -23.19138382	     -0.40476601	      2.34857423	      3.87302174	     -5.70901374	    -20.38357830	     -7.46959170	      8.02957441	     -2.74622656	    -13.80227890	     -4.83197313	     57.58129019	     89.95437384	      0.00000000	      0.00000000	    -12.16594983	      7.61911155	     21.02966913	     10.12578377	     89.95437384	      0.00000000	      0.00000000
      0.86000000	     16.47427752	      4.24495016	     -3.72887951	     -0.08117821	      0.92657371	      1.01731340	    -28.23493153	     -6.77937709	     -6.40254214	    -35.94691588	     -0.62739204	     -6.74894540	     -8.96798157	      0.49428616	      3.57256222	     -3.99523911	     16.94197994	    -22.76685491	     -0.39735658	      2.57230156	      4.88731269	     -5.50886577	    -20.79510422	     -7.71211915	      7.80420931	     -3.18110736	    -13.62523479	     -4.66854015	     56.77928636	     89.95437384	      0.00000000	      0.00000000	    -12.04566668	      7.64743395	     19.84429274	     10.45095431	     89.95437384	      0.00000000	      0.00000000
      0.87000000	     16.70537461	      4.08583158	     -3.72878110	     -0.06885044	      0.92888185	      1.01580750	    -27.34582445	     -6.95607348	     -6.35017747	    -38.37772960	     -0.66981774	     -9.26933972	     -8.95980611	      1.04443908	      2.44814287	     -4.06290428	     16.80498294	    -22.75137645	     -0.39708643	      3.28198999	      4.92287479	     -5.40346501	    -20.95124020	     -7.48065179	      7.60550808	     -3.56643118	    -13.60990331	     -4.20532748	     55.86018587	     89.95437384	      0.00000000	      0.00000000	    -11.81505066	      7.59382125	     19.24962035	     10.72450233	     89.95437384	      0.00000000	      0.00000000
      0.88000000	     17.04464436	      3.78440139	     -3.55233314	     -0.05697734	      0.93119303	      1.01422139	    -26.52440983	     -6.86162752	     -6.23437615	    -40.93201797	     -0.71439848	    -10.82286745	     -8.90755965	      1.26314226	      1.22363759	     -3.92257340	     16.76630735	    -22.76400485	     -0.39730684	      3.65307391	      4.77111370	     -5.30651990	    -21.33714925	     -7.04339449	      7.19555285	     -3.85822812	    -13.46679076	     -4.00798556	     54.95357810	     89.95437384	      0.00000000	      0.00000000	    -11.53480440	      7.49877009	     18.86673751	     11.12927594	     89.95437384	      0.00000000	      0.00000000
      0.89000000	     17.13320034	      3.91811559	     -4.24608274	     -0.04514574	      0.93303962	      1.01319358	    -24.93456190	     -7.65211852	     -5.68033246	    -43.81572960	     -0.76472875	    -14.20438718	    -11.18213397	      3.19569302	     -0.12328270	     -4.45837151	     17.11305456	    -21.88867798	     -0.38202950	      4.13801934	      4.92506499	     -5.02267924	    -21.26080249	     -7.27146164	      7.59425737	     -4.22376229	    -13.64281842	     -3.25937863	     53.90200622	     89.95437384	      0.00000000	      0.00000000	    -11.40391079	      7.49457731	     17.22817716	     11.90781470	     89.95437384	      0.00000000	      0.00000000
      0.90000000	     17.32118498	      3.71454717	     -4.38322646	     -0.03323562	      0.93481212	      1.01186661	    -23.68523174	     -7.83150572	     -5.42481033	    -46.33026138	     -0.80861560	    -16.71387234	    -11.50338795	      3.89148751	     -1.44333349	     -4.46202707	     17.40014208	    -21.45470223	     -0.37445519	      4.92475656	      4.48793556	     -4.97412184	    -21.37413035	     -7.00243551	      7.46504861	     -4.54070360	    -13.70691209	     -2.63425434	     52.88641530	     89.95437384	      0.00000000	      0.00000000	    -11.11763544	      7.42208161	     16.67146798	     12.45629403	     89.95437384	      0.00000000	      0.00000000
      0.91000000	     17.47497275	      3.58454556	     -4.69800812	     -0.02188731	      0.93642865	      1.01071139	    -22.21894087	     -8.08344690	     -4.91737385	    -48.88674701	     -0.85323470	    -18.74051216	    -12.49452377	      4.62391403	     -2.74524703	     -4.54777975	     17.87736157	    -20.84859319	     -0.36387660	      5.49266755	      4.04947879	     -4.92972563	    -21.50252051	     -6.86087253	      7.42773450	     -4.77039155	    -13.75483667	     -1.98597400	     51.78377548	     89.95437384	      0.00000000	      0.00000000	    -10.77548384	      7.33506899	     16.20074461	     13.14614169	     89.95437384	      0.00000000	      0.00000000
      0.92000000	     17.86394753	      3.27874657	     -4.45250854	     -0.01080411	      0.93831936	      1.00924833	    -21.25704459	     -7.97076385	     -5.11050730	    -51.01946668	     -0.89045768	    -19.11680076	    -12.77521809	      4.70449622	     -4.08475718	     -4.30017112	     18.15136122	    -20.71634431	     -0.36156842	      5.76178525	      3.87256561	     -4.87455529	    -22.03399025	     -6.38734437	      6.93858261	     -5.03225415	    -13.60516809	     -1.79761199	     50.82710479	     89.95437384	      0.00000000	      0.00000000	    -10.18050973	      7.31200166	     15.93149464	     13.63792131	     89.95437384	      0.00000000	      0.00000000
      0.93000000	     17.94080328	      3.14860374	     -5.15108924	      0.00022968	      0.93955605	      1.00906875	    -19.55072092	     -8.11551846	     -4.17725143	    -53.46312103	     -0.93310749	    -18.26019390	    -14.89029273	     13.06545176	     -5.26724231	     -4.22377718	     19.59240046	    -20.19790064	     -0.35251987	      6.00262049	      1.62484308	     -4.21105061	    -22.02203649	     -6.41744802	      7.24836932	     -5.15581460	    -13.68554234	     -0.92048963	     49.41353708	     89.95437384	      0.00000000	      0.00000000	    -10.04823868	      7.48156823	     13.93396926	     14.80986199	     89.95437384	      0.00000000	      0.00000000
